<svg width="24" height="24" viewBox="0 0 24 24" fill="none" xmlns="http://www.w3.org/2000/svg">
<path d="M12.0053 5.83926C8.5982 5.83926 5.84999 8.58748 5.84999 11.9946C5.84999 15.4018 8.5982 18.15 12.0053 18.15C15.4125 18.15 18.1607 15.4018 18.1607 11.9946C18.1607 8.58748 15.4125 5.83926 12.0053 5.83926ZM12.0053 15.9964C9.80356 15.9964 8.00356 14.2018 8.00356 11.9946C8.00356 9.78748 9.7982 7.99283 12.0053 7.99283C14.2125 7.99283 16.0071 9.78748 16.0071 11.9946C16.0071 14.2018 14.2071 15.9964 12.0053 15.9964ZM19.8482 5.58748C19.8482 6.38569 19.2053 7.02319 18.4125 7.02319C17.6143 7.02319 16.9768 6.38033 16.9768 5.58748C16.9768 4.79462 17.6196 4.15176 18.4125 4.15176C19.2053 4.15176 19.8482 4.79462 19.8482 5.58748ZM23.925 7.04462C23.8339 5.1214 23.3946 3.41783 21.9857 2.01426C20.5821 0.61069 18.8786 0.171404 16.9553 0.0749756C14.9732 -0.0375244 9.03213 -0.0375244 7.04999 0.0749756C5.13213 0.166047 3.42856 0.605333 2.01963 2.0089C0.610704 3.41248 0.176775 5.11605 0.0803467 7.03926C-0.0321533 9.0214 -0.0321533 14.9625 0.0803467 16.9446C0.171418 18.8678 0.610704 20.5714 2.01963 21.975C3.42856 23.3785 5.12678 23.8178 7.04999 23.9143C9.03213 24.0268 14.9732 24.0268 16.9553 23.9143C18.8786 23.8232 20.5821 23.3839 21.9857 21.975C23.3893 20.5714 23.8286 18.8678 23.925 16.9446C24.0375 14.9625 24.0375 9.02676 23.925 7.04462ZM21.3643 19.0714C20.9464 20.1214 20.1375 20.9303 19.0821 21.3535C17.5018 21.9803 13.7518 21.8357 12.0053 21.8357C10.2589 21.8357 6.50356 21.975 4.92856 21.3535C3.87856 20.9357 3.06963 20.1268 2.64642 19.0714C2.01963 17.491 2.16428 13.741 2.16428 11.9946C2.16428 10.2482 2.02499 6.49283 2.64642 4.91783C3.06428 3.86783 3.8732 3.0589 4.92856 2.63569C6.50892 2.0089 10.2589 2.15355 12.0053 2.15355C13.7518 2.15355 17.5071 2.01426 19.0821 2.63569C20.1321 3.05355 20.9411 3.86248 21.3643 4.91783C21.9911 6.49819 21.8464 10.2482 21.8464 11.9946C21.8464 13.741 21.9911 17.4964 21.3643 19.0714Z" fill="white"/>
</svg>
