<svg width="24" height="24" viewBox="0 0 24 24" fill="none" xmlns="http://www.w3.org/2000/svg">
<path d="M20.9895 24H3.00709C2.17977 24 1.47343 23.707 0.88806 23.1211C0.302693 22.5352 0.0100098 21.8281 0.0100098 21V3C0.0100098 2.17188 0.302693 1.46484 0.88806 0.878906C1.47343 0.292969 2.17977 0 3.00709 0H20.9895C21.8169 0 22.5232 0.292969 23.1086 0.878906C23.6939 1.46484 23.9866 2.17188 23.9866 3V21C23.9866 21.8281 23.6939 22.5352 23.1086 23.1211C22.5232 23.707 21.8169 24 20.9895 24ZM19.0461 6C18.9525 6.04688 18.812 6.13672 18.6247 6.26953C18.4373 6.40234 18.2852 6.50391 18.1681 6.57422C18.051 6.64453 17.9066 6.71875 17.7349 6.79688C17.5632 6.875 17.3993 6.92969 17.2432 6.96094C16.6656 6.32031 15.9554 6 15.1125 6C13.2861 6 12.373 6.76562 12.373 8.29688V9.70312C9.85978 9.5625 7.93197 8.63281 6.58953 6.91406C6.19929 7.32031 6.00416 7.76562 6.00416 8.25C6.00416 9.28125 6.3866 10.0625 7.15148 10.5938C7.04221 10.5938 6.90563 10.6016 6.74172 10.6172C6.57782 10.6328 6.44514 10.6328 6.34368 10.6172C6.24221 10.6016 6.12904 10.5625 6.00416 10.5C6.00416 11.2188 6.19538 11.8164 6.57782 12.293C6.96026 12.7695 7.48709 13.0781 8.15831 13.2188C8.00221 13.4062 7.78368 13.5 7.5027 13.5C7.25295 13.5 7.03441 13.4297 6.84709 13.2891C6.84709 13.8984 7.13977 14.3711 7.72514 14.707C8.31051 15.043 8.97002 15.2188 9.70368 15.2344C9.4227 15.6562 9.01295 15.9727 8.47441 16.1836C7.93587 16.3945 7.36221 16.5 6.75343 16.5C6.5349 16.5 6.23441 16.4453 5.85197 16.3359C5.46953 16.2266 5.2705 16.1719 5.25489 16.1719C5.50465 16.6719 6.01587 17.1016 6.78855 17.4609C7.56124 17.8203 8.54075 18 9.72709 18C10.7729 18 11.7486 17.8164 12.6539 17.4492C13.5593 17.082 14.332 16.5938 14.972 15.9844C15.612 15.375 16.1622 14.6797 16.6227 13.8984C17.0832 13.1172 17.4266 12.3086 17.653 11.4727C17.8793 10.6367 17.9925 9.8125 17.9925 9C17.9925 8.96875 18.0861 8.90234 18.2734 8.80078C18.4608 8.69922 18.6793 8.56641 18.9291 8.40234C19.1788 8.23828 19.3661 8.05469 19.491 7.85156C18.6481 7.85156 18.0861 7.86719 17.8052 7.89844C18.3515 7.57031 18.7652 6.9375 19.0461 6Z" fill="white"/>
</svg>
